<svg xmlns="http://www.w3.org/2000/svg" width="43.645" height="45" viewBox="0 0 43.645 45">
  <defs>
    <style>
      .cls-1 {
        fill: #c0e8ef;
        fill-rule: evenodd;
      }
    </style>
  </defs>
  <g id="profile" transform="translate(-1.5 -1.5)">
    <path id="Path_1" data-name="Path 1" class="cls-1" d="M24,13.5a6,6,0,1,1-6-6A6,6,0,0,1,24,13.5Zm-3,0a3,3,0,1,1-3-3A3,3,0,0,1,21,13.5Z" transform="translate(5.322 3.429)"/>
    <path id="Path_2" data-name="Path 2" class="cls-1" d="M23.322,1.5C11.27,1.5,1.5,11.573,1.5,24s9.77,22.5,21.822,22.5S45.145,36.427,45.145,24,35.374,1.5,23.322,1.5ZM5.468,24A18.7,18.7,0,0,0,9.253,35.336a17.533,17.533,0,0,1,28.269-.172,18.871,18.871,0,0,0,.406-21.751,17.568,17.568,0,0,0-19.99-6.962A18.359,18.359,0,0,0,5.468,24ZM23.322,42.409A17.452,17.452,0,0,1,12.07,38.294a13.653,13.653,0,0,1,22.669-.139A17.461,17.461,0,0,1,23.322,42.409Z"/>
  </g>
</svg>
