<svg xmlns="http://www.w3.org/2000/svg" width="99" height="22" viewBox="0 0 109 32">
  <defs>
    <style>
      .cls-1 {
        fill: #2370d2;
      }

      .cls-2 {
        fill: #4e4b4b;
      }
    </style>
  </defs>
  <g id="Group_4" data-name="Group 4" transform="translate(-173 -666)">
    <g id="Icon_ionic-md-thumbs-up" data-name="Icon ionic-md-thumbs-up" transform="translate(169.625 661.5)">
      <path id="Path_4" data-name="Path 4" class="cls-1" d="M13.922,31.5H26.016a2.58,2.58,0,0,0,2.4-1.645l4.015-9.52a2.691,2.691,0,0,0,.183-.984V16.636c0-1.484-1.2-3.136-2.658-3.136H21.579l1.266-5.73.042-.422A2.038,2.038,0,0,0,22.3,5.92L20.883,4.5l-8.859,8.951a2.707,2.707,0,0,0-.773,1.905v13.5A2.651,2.651,0,0,0,13.922,31.5Z"/>
      <path id="Path_5" data-name="Path 5" class="cls-1" d="M3.375,15.75h4.5V31.5h-4.5Z"/>
    </g>
    <g id="Icon_ionic-md-thumbs-down" data-name="Icon ionic-md-thumbs-down" transform="translate(249.375 666.507)">
      <path id="Path_6" data-name="Path 6" class="cls-2" d="M22.078,4.5H9.984a2.58,2.58,0,0,0-2.4,1.645l-4.022,9.52a2.691,2.691,0,0,0-.183.984v2.714c0,1.484,1.2,3.136,2.658,3.136h8.388l-1.266,5.73-.042.422A2.038,2.038,0,0,0,13.7,30.08L15.1,31.493l8.873-8.944a2.707,2.707,0,0,0,.773-1.905V7.144A2.651,2.651,0,0,0,22.078,4.5Z"/>
      <path id="Path_7" data-name="Path 7" class="cls-2" d="M28.125,4.5h4.5V20.25h-4.5Z"/>
    </g>
  </g>
</svg>
